blackcompressed.ufo
<glyph name="quotedbl" format="1">
  <advance width="340"/>
  <unicode hex="0022"/>
  <outline>
    <contour>
      <point x="173" y="658"/>
      <point x="30" y="658"/>
      <point x="173" y="658" type="curve"/>
      <point x="173" y="721"/>
      <point x="173" y="783"/>
      <point x="173" y="846" type="curve"/>
      <point x="30" y="846"/>
      <point x="173" y="846"/>
      <point x="30" y="846" type="curve"/>
      <point x="30" y="783"/>
      <point x="30" y="721"/>
      <point x="30" y="658" type="curve"/>
    </contour>
    <contour>
      <point x="310" y="658"/>
      <point x="173" y="658"/>
      <point x="310" y="658" type="curve"/>
      <point x="310" y="721"/>
      <point x="310" y="783"/>
      <point x="310" y="846" type="curve"/>
      <point x="173" y="846"/>
      <point x="310" y="846"/>
      <point x="173" y="846" type="curve"/>
      <point x="173" y="783"/>
      <point x="173" y="721"/>
      <point x="173" y="658" type="curve"/>
    </contour>
  </outline>
</glyph>
<glyph name="quotesingle" format="1">
  <advance width="203"/>
  <unicode hex="0027"/>
  <outline>
    <contour>
      <point x="173" y="658"/>
      <point x="30" y="658"/>
      <point x="173" y="658" type="curve"/>
      <point x="173" y="721"/>
      <point x="173" y="783"/>
      <point x="173" y="846" type="curve"/>
      <point x="30" y="846"/>
      <point x="173" y="846"/>
      <point x="30" y="846" type="curve"/>
      <point x="30" y="783"/>
      <point x="30" y="721"/>
      <point x="30" y="658" type="curve"/>
    </contour>
  </outline>
</glyph>
<glyph name="parenleft" format="1">
  <advance width="357"/>
  <unicode hex="0028"/>
  <outline>
    <contour>
      <point x="327" y="-204"/>
      <point x="243" y="-282"/>
      <point x="327" y="-204" type="curve"/>
      <point x="200" y="-37"/>
      <point x="180" y="116"/>
      <point x="180" y="326" type="curve"/>
      <point x="180" y="537"/>
      <point x="201" y="690"/>
      <point x="326" y="860" type="curve"/>
      <point x="242" y="931"/>
      <point x="326" y="860"/>
      <point x="242" y="931" type="curve"/>
      <point x="94" y="737"/>
      <point x="30" y="571"/>
      <point x="30" y="326" type="curve"/>
      <point x="30" y="80"/>
      <point x="94" y="-86"/>
      <point x="243" y="-282" type="curve"/>
    </contour>
  </outline>
</glyph>
<glyph name="A" format="1">
  <advance width="745"/>
  <unicode hex="0041"/>
  <outline>
    <contour>
      <point x="167" y="110"/>
      <point x="167" y="0"/>
      <point x="167" y="110" type="curve"/>
      <point x="30" y="110"/>
      <point x="167" y="110"/>
      <point x="30" y="110" type="curve"/>
      <point x="30" y="0"/>
      <point x="30" y="110"/>
      <point x="30" y="0" type="curve"/>
      <point x="76" y="0"/>
      <point x="122" y="0"/>
      <point x="167" y="0" type="curve"/>
    </contour>
    <contour>
      <point x="167" y="0"/>
      <point x="167" y="110"/>
      <point x="167" y="0" type="curve"/>
      <point x="224" y="0"/>
      <point x="167" y="0"/>
      <point x="337" y="0" type="curve"/>
      <point x="337" y="110"/>
      <point x="337" y="0"/>
      <point x="337" y="110" type="curve"/>
      <point x="167" y="110"/>
      <point x="337" y="110"/>
      <point x="167" y="110" type="curve"/>
    </contour>
    <contour>
      <point x="578" y="0"/>
      <point x="578" y="110"/>
      <point x="578" y="0" type="curve"/>
      <point x="623" y="0"/>
      <point x="669" y="0"/>
      <point x="715" y="0" type="curve"/>
      <point x="715" y="110"/>
      <point x="715" y="0"/>
      <point x="715" y="110" type="curve"/>
      <point x="578" y="110"/>
      <point x="715" y="110"/>
      <point x="578" y="110" type="curve"/>
    </contour>
    <contour>
      <point x="578" y="110"/>
      <point x="578" y="0"/>
      <point x="578" y="110" type="curve"/>
      <point x="408" y="110"/>
      <point x="578" y="110"/>
      <point x="408" y="110" type="curve"/>
      <point x="408" y="0"/>
      <point x="408" y="110"/>
      <point x="408" y="0" type="curve"/>
      <point x="464" y="0"/>
      <point x="521" y="0"/>
      <point x="578" y="0" type="curve"/>
    </contour>
    <contour>
      <point x="490" y="324"/>
      <point x="535" y="207"/>
      <point x="490" y="324" type="curve"/>
      <point x="418" y="324"/>
      <point x="345" y="324"/>
      <point x="273" y="324" type="curve"/>
      <point x="214" y="207"/>
      <point x="273" y="324"/>
      <point x="214" y="207" type="curve"/>
      <point x="321" y="207"/>
      <point x="428" y="207"/>
      <point x="535" y="207" type="curve"/>
    </contour>
    <contour>
      <point x="661" y="0"/>
      <point x="511" y="0"/>
      <point x="661" y="0" type="curve"/>
      <point x="593" y="241"/>
      <point x="518" y="481"/>
      <point x="450" y="722" type="curve"/>
      <point x="320" y="722"/>
      <point x="450" y="722"/>
      <point x="320" y="722" type="curve"/>
      <point x="386" y="482"/>
      <point x="445" y="240"/>
      <point x="511" y="0" type="curve"/>
    </contour>
    <contour>
      <point x="236" y="0"/>
      <point x="80" y="0"/>
      <point x="236" y="0" type="curve"/>
      <point x="310" y="240"/>
      <point x="374" y="482"/>
      <point x="448" y="722" type="curve"/>
      <point x="318" y="722"/>
      <point x="448" y="722"/>
      <point x="318" y="722" type="curve"/>
      <point x="242" y="480"/>
      <point x="156" y="242"/>
      <point x="80" y="0" type="curve"/>
    </contour>
  </outline>
</glyph>
<glyph name="B" format="1">
  <advance width="569"/>
  <unicode hex="0042"/>
  <outline>
    <contour>
      <point x="168" y="722"/>
      <point x="168" y="612"/>
      <point x="168" y="722" type="curve"/>
      <point x="122" y="722"/>
      <point x="76" y="722"/>
      <point x="31" y="722" type="curve"/>
      <point x="31" y="612"/>
      <point x="31" y="722"/>
      <point x="31" y="612" type="curve"/>
      <point x="168" y="612"/>
      <point x="31" y="612"/>
      <point x="168" y="612" type="curve"/>
    </contour>
    <contour>
      <point x="167" y="110"/>
      <point x="167" y="0"/>
      <point x="167" y="110" type="curve"/>
      <point x="30" y="110"/>
      <point x="167" y="110"/>
      <point x="30" y="110" type="curve"/>
      <point x="30" y="0"/>
      <point x="30" y="110"/>
      <point x="30" y="0" type="curve"/>
      <point x="76" y="0"/>
      <point x="122" y="0"/>
      <point x="167" y="0" type="curve"/>
    </contour>
    <contour>
      <point x="160" y="612"/>
      <point x="160" y="722"/>
      <point x="160" y="612" type="curve"/>
      <point x="214" y="612"/>
      <point x="268" y="612"/>
      <point x="322" y="612" type="curve"/>
      <point x="358" y="612"/>
      <point x="361" y="574"/>
      <point x="361" y="530" type="curve"/>
      <point x="361" y="494"/>
      <point x="352" y="459"/>
      <point x="322" y="459" type="curve"/>
      <point x="268" y="459"/>
      <point x="214" y="459"/>
      <point x="160" y="459" type="curve"/>
      <point x="160" y="348"/>
      <point x="160" y="459"/>
      <point x="160" y="348" type="curve"/>
      <point x="190" y="348"/>
      <point x="220" y="348"/>
      <point x="250" y="348" type="curve"/>
      <point x="383" y="348"/>
      <point x="504" y="408"/>
      <point x="504" y="530" type="curve"/>
      <point x="504" y="647"/>
      <point x="437" y="722"/>
      <point x="322" y="722" type="curve"/>
      <point x="268" y="722"/>
      <point x="214" y="722"/>
      <point x="160" y="722" type="curve"/>
    </contour>
    <contour>
      <point x="243" y="0"/>
      <point x="94" y="0"/>
      <point x="243" y="0" type="curve"/>
      <point x="243" y="241"/>
      <point x="243" y="481"/>
      <point x="243" y="722" type="curve"/>
      <point x="94" y="722"/>
      <point x="243" y="722"/>
      <point x="94" y="722" type="curve"/>
      <point x="94" y="481"/>
      <point x="94" y="241"/>
      <point x="94" y="0" type="curve"/>
    </contour>
    <contour>
      <point x="160" y="348"/>
      <point x="160" y="459"/>
      <point x="160" y="348" type="curve"/>
      <point x="214" y="348"/>
      <point x="268" y="348"/>
      <point x="322" y="348" type="curve"/>
      <point x="379" y="348"/>
      <point x="396" y="293"/>
      <point x="396" y="224" type="curve"/>
      <point x="396" y="160"/>
      <point x="378" y="110"/>
      <point x="320" y="110" type="curve"/>
      <point x="267" y="110"/>
      <point x="213" y="110"/>
      <point x="160" y="110" type="curve"/>
      <point x="160" y="0"/>
      <point x="160" y="110"/>
      <point x="160" y="0" type="curve"/>
      <point x="213" y="0"/>
      <point x="267" y="0"/>
      <point x="320" y="0" type="curve"/>
      <point x="459" y="0"/>
      <point x="539" y="85"/>
      <point x="539" y="224" type="curve"/>
      <point x="539" y="382"/>
      <point x="414" y="459"/>
      <point x="250" y="459" type="curve"/>
      <point x="220" y="459"/>
      <point x="190" y="459"/>
      <point x="160" y="459" type="curve"/>
    </contour>
  </outline>
</glyph>
<glyph name="H" format="1">
  <advance width="714"/>
  <unicode hex="0048"/>
  <outline>
    <contour>
      <point x="547" y="612"/>
      <point x="547" y="722"/>
      <point x="547" y="612" type="curve"/>
      <point x="684" y="612"/>
      <point x="547" y="612"/>
      <point x="684" y="612" type="curve"/>
      <point x="684" y="722"/>
      <point x="684" y="612"/>
      <point x="684" y="722" type="curve"/>
      <point x="638" y="722"/>
      <point x="592" y="722"/>
      <point x="547" y="722" type="curve"/>
    </contour>
    <contour>
      <point x="547" y="0"/>
      <point x="547" y="110"/>
      <point x="547" y="0" type="curve"/>
      <point x="592" y="0"/>
      <point x="638" y="0"/>
      <point x="684" y="0" type="curve"/>
      <point x="684" y="110"/>
      <point x="684" y="0"/>
      <point x="684" y="110" type="curve"/>
      <point x="547" y="110"/>
      <point x="684" y="110"/>
      <point x="547" y="110" type="curve"/>
    </contour>
    <contour>
      <point x="547" y="110"/>
      <point x="547" y="0"/>
      <point x="547" y="110" type="curve"/>
      <point x="410" y="110"/>
      <point x="547" y="110"/>
      <point x="410" y="110" type="curve"/>
      <point x="410" y="0"/>
      <point x="410" y="110"/>
      <point x="410" y="0" type="curve"/>
      <point x="455" y="0"/>
      <point x="501" y="0"/>
      <point x="547" y="0" type="curve"/>
    </contour>
    <contour>
      <point x="547" y="722"/>
      <point x="547" y="612"/>
      <point x="547" y="722" type="curve"/>
      <point x="501" y="722"/>
      <point x="455" y="722"/>
      <point x="410" y="722" type="curve"/>
      <point x="410" y="612"/>
      <point x="410" y="722"/>
      <point x="410" y="612" type="curve"/>
      <point x="547" y="612"/>
      <point x="410" y="612"/>
      <point x="547" y="612" type="curve"/>
    </contour>
    <contour>
      <point x="167" y="612"/>
      <point x="167" y="722"/>
      <point x="167" y="612" type="curve"/>
      <point x="305" y="612"/>
      <point x="167" y="612"/>
      <point x="305" y="612" type="curve"/>
      <point x="305" y="722"/>
      <point x="305" y="612"/>
      <point x="305" y="722" type="curve"/>
      <point x="259" y="722"/>
      <point x="213" y="722"/>
      <point x="167" y="722" type="curve"/>
    </contour>
    <contour>
      <point x="167" y="722"/>
      <point x="167" y="612"/>
      <point x="167" y="722" type="curve"/>
      <point x="122" y="722"/>
      <point x="76" y="722"/>
      <point x="30" y="722" type="curve"/>
      <point x="30" y="612"/>
      <point x="30" y="722"/>
      <point x="30" y="612" type="curve"/>
      <point x="167" y="612"/>
      <point x="30" y="612"/>
      <point x="167" y="612" type="curve"/>
    </contour>
    <contour>
      <point x="167" y="0"/>
      <point x="167" y="110"/>
      <point x="167" y="0" type="curve"/>
      <point x="213" y="0"/>
      <point x="167" y="0"/>
      <point x="305" y="0" type="curve"/>
      <point x="305" y="110"/>
      <point x="305" y="0"/>
      <point x="305" y="110" type="curve"/>
      <point x="167" y="110"/>
      <point x="305" y="110"/>
      <point x="167" y="110" type="curve"/>
    </contour>
    <contour>
      <point x="167" y="110"/>
      <point x="167" y="0"/>
      <point x="167" y="110" type="curve"/>
      <point x="30" y="110"/>
      <point x="167" y="110"/>
      <point x="30" y="110" type="curve"/>
      <point x="30" y="0"/>
      <point x="30" y="110"/>
      <point x="30" y="0" type="curve"/>
      <point x="76" y="0"/>
      <point x="122" y="0"/>
      <point x="167" y="0" type="curve"/>
    </contour>
    <contour>
      <point x="239" y="0"/>
      <point x="96" y="0"/>
      <point x="239" y="0" type="curve"/>
      <point x="239" y="0"/>
      <point x="239" y="722"/>
      <point x="239" y="722" type="curve"/>
      <point x="96" y="722"/>
      <point x="239" y="722"/>
      <point x="96" y="722" type="curve"/>
      <point x="96" y="481"/>
      <point x="96" y="241"/>
      <point x="96" y="0" type="curve"/>
    </contour>
    <contour>
      <point x="545" y="418"/>
      <point x="545" y="307"/>
      <point x="545" y="418" type="curve"/>
      <point x="419" y="418"/>
      <point x="293" y="418"/>
      <point x="167" y="418" type="curve"/>
      <point x="167" y="307"/>
      <point x="167" y="418"/>
      <point x="167" y="307" type="curve"/>
      <point x="293" y="307"/>
      <point x="419" y="307"/>
      <point x="545" y="307" type="curve"/>
    </contour>
    <contour>
      <point x="618" y="47"/>
      <point x="475" y="47"/>
      <point x="618" y="47" type="curve"/>
      <point x="618" y="256"/>
      <point x="618" y="466"/>
      <point x="618" y="675" type="curve"/>
      <point x="475" y="675"/>
      <point x="618" y="675"/>
      <point x="475" y="675" type="curve"/>
      <point x="475" y="675"/>
      <point x="475" y="47"/>
      <point x="475" y="47" type="curve"/>
    </contour>
  </outline>
</glyph>
<glyph name="W" format="1">
  <advance width="886"/>
  <unicode hex="0057"/>
  <outline>
    <contour>
      <point x="439" y="612"/>
      <point x="439" y="722"/>
      <point x="439" y="612" type="curve"/>
      <point x="577" y="612"/>
      <point x="429" y="612"/>
      <point x="567" y="612" type="curve"/>
      <point x="567" y="722"/>
      <point x="567" y="612"/>
      <point x="567" y="722" type="curve"/>
      <point x="521" y="722"/>
      <point x="485" y="722"/>
      <point x="439" y="722" type="curve"/>
    </contour>
    <contour>
      <point x="446" y="722"/>
      <point x="446" y="612"/>
      <point x="446" y="722" type="curve"/>
      <point x="401" y="722"/>
      <point x="365" y="722"/>
      <point x="319" y="722" type="curve"/>
      <point x="319" y="612"/>
      <point x="319" y="722"/>
      <point x="319" y="612" type="curve"/>
      <point x="456" y="612"/>
      <point x="309" y="612"/>
      <point x="446" y="612" type="curve"/>
    </contour>
    <contour>
      <point x="167" y="612"/>
      <point x="167" y="722"/>
      <point x="167" y="612" type="curve"/>
      <point x="305" y="612"/>
      <point x="157" y="612"/>
      <point x="295" y="612" type="curve"/>
      <point x="295" y="722"/>
      <point x="295" y="612"/>
      <point x="295" y="722" type="curve"/>
      <point x="249" y="722"/>
      <point x="213" y="722"/>
      <point x="167" y="722" type="curve"/>
    </contour>
    <contour>
      <point x="167" y="722"/>
      <point x="167" y="612"/>
      <point x="167" y="722" type="curve"/>
      <point x="122" y="722"/>
      <point x="76" y="722"/>
      <point x="30" y="722" type="curve"/>
      <point x="30" y="612"/>
      <point x="30" y="722"/>
      <point x="30" y="612" type="curve"/>
      <point x="167" y="612"/>
      <point x="30" y="612"/>
      <point x="167" y="612" type="curve"/>
    </contour>
    <contour>
      <point x="719" y="722"/>
      <point x="719" y="612"/>
      <point x="719" y="722" type="curve"/>
      <point x="674" y="722"/>
      <point x="638" y="722"/>
      <point x="592" y="722" type="curve"/>
      <point x="592" y="612"/>
      <point x="592" y="722"/>
      <point x="592" y="612" type="curve"/>
      <point x="729" y="612"/>
      <point x="582" y="612"/>
      <point x="719" y="612" type="curve"/>
    </contour>
    <contour>
      <point x="719" y="612"/>
      <point x="719" y="722"/>
      <point x="719" y="612" type="curve"/>
      <point x="857" y="612"/>
      <point x="719" y="612"/>
      <point x="857" y="612" type="curve"/>
      <point x="857" y="722"/>
      <point x="857" y="612"/>
      <point x="857" y="722" type="curve"/>
      <point x="811" y="722"/>
      <point x="765" y="722"/>
      <point x="719" y="722" type="curve"/>
    </contour>
    <contour>
      <point x="355" y="0"/>
      <point x="238" y="0"/>
      <point x="355" y="0" type="curve"/>
      <point x="405" y="241"/>
      <point x="455" y="481"/>
      <point x="506" y="722" type="curve"/>
      <point x="385" y="722"/>
      <point x="506" y="722"/>
      <point x="385" y="722" type="curve"/>
      <point x="336" y="481"/>
      <point x="287" y="241"/>
      <point x="238" y="0" type="curve"/>
    </contour>
    <contour>
      <point x="390" y="722"/>
      <point x="511" y="722"/>
      <point x="390" y="722" type="curve"/>
      <point x="436" y="481"/>
      <point x="481" y="241"/>
      <point x="526" y="0" type="curve"/>
      <point x="643" y="0"/>
      <point x="526" y="0"/>
      <point x="643" y="0" type="curve"/>
      <point x="599" y="241"/>
      <point x="555" y="481"/>
      <point x="511" y="722" type="curve"/>
    </contour>
    <contour>
      <point x="97" y="722"/>
      <point x="219" y="722"/>
      <point x="97" y="722" type="curve"/>
      <point x="142" y="481"/>
      <point x="188" y="241"/>
      <point x="234" y="0" type="curve"/>
      <point x="350" y="0"/>
      <point x="234" y="0"/>
      <point x="350" y="0" type="curve"/>
      <point x="307" y="241"/>
      <point x="263" y="481"/>
      <point x="219" y="722" type="curve"/>
    </contour>
    <contour>
      <point x="667" y="722"/>
      <point x="790" y="722"/>
      <point x="667" y="722" type="curve"/>
      <point x="622" y="481"/>
      <point x="576" y="241"/>
      <point x="531" y="0" type="curve"/>
      <point x="647" y="0"/>
      <point x="531" y="0"/>
      <point x="647" y="0" type="curve"/>
      <point x="695" y="241"/>
      <point x="742" y="481"/>
      <point x="790" y="722" type="curve"/>
    </contour>
  </outline>
</glyph>
<glyph name="bracketright" format="1">
  <advance width="242"/>
  <unicode hex="005D"/>
  <outline>
    <contour>
      <point x="30" y="648"/>
      <point x="30" y="769"/>
      <point x="30" y="648" type="curve"/>
      <point x="68" y="648"/>
      <point x="107" y="648"/>
      <point x="145" y="648" type="curve"/>
      <point x="133" y="660"/>
      <point x="113" y="661"/>
      <point x="101" y="673" type="curve"/>
      <point x="89" y="686"/>
      <point x="80" y="701"/>
      <point x="68" y="714" type="curve"/>
      <point x="68" y="456"/>
      <point x="68" y="199"/>
      <point x="68" y="-59" type="curve"/>
      <point x="80" y="-45"/>
      <point x="93" y="-33"/>
      <point x="104" y="-20" type="curve"/>
      <point x="115" y="-7"/>
      <point x="134" y="-4"/>
      <point x="146" y="9" type="curve"/>
      <point x="107" y="9"/>
      <point x="68" y="9"/>
      <point x="30" y="9" type="curve"/>
      <point x="30" y="-113"/>
      <point x="30" y="9"/>
      <point x="30" y="-113" type="curve"/>
      <point x="68" y="-113"/>
      <point x="107" y="-113"/>
      <point x="146" y="-113" type="curve"/>
      <point x="211" y="-113"/>
      <point x="146" y="-113"/>
      <point x="211" y="-113" type="curve"/>
      <point x="211" y="-59"/>
      <point x="211" y="-113"/>
      <point x="211" y="-59" type="curve"/>
      <point x="211" y="199"/>
      <point x="211" y="456"/>
      <point x="211" y="714" type="curve"/>
      <point x="211" y="769"/>
      <point x="211" y="714"/>
      <point x="211" y="769" type="curve"/>
      <point x="145" y="769"/>
      <point x="211" y="769"/>
      <point x="145" y="769" type="curve"/>
      <point x="107" y="769"/>
      <point x="68" y="769"/>
      <point x="30" y="769" type="curve"/>
    </contour>
  </outline>
</glyph>
<glyph name="g" format="1">
  <advance width="543"/>
  <unicode hex="0067"/>
  <outline>
    <contour>
      <point x="408" y="377"/>
      <point x="330" y="482"/>
      <point x="408" y="377" type="curve"/>
      <point x="443" y="400"/>
      <point x="477" y="424"/>
      <point x="513" y="446" type="curve"/>
      <point x="441" y="551"/>
      <point x="513" y="446"/>
      <point x="441" y="551" type="curve"/>
      <point x="404" y="528"/>
      <point x="366" y="505"/>
      <point x="330" y="482" type="curve"/>
    </contour>
    <contour>
      <point x="206" y="334"/>
      <point x="63" y="329"/>
      <point x="206" y="334" type="curve"/>
      <point x="206" y="384"/>
      <point x="223" y="427"/>
      <point x="267" y="427" type="curve"/>
      <point x="311" y="427"/>
      <point x="323" y="383"/>
      <point x="323" y="332" type="curve"/>
      <point x="323" y="285"/>
      <point x="312" y="243"/>
      <point x="271" y="243" type="curve"/>
      <point x="226" y="243"/>
      <point x="206" y="284"/>
      <point x="206" y="334" type="curve"/>
      <point x="63" y="329"/>
      <point x="206" y="334"/>
      <point x="63" y="329" type="curve"/>
      <point x="63" y="215"/>
      <point x="143" y="138"/>
      <point x="258" y="138" type="curve"/>
      <point x="381" y="138"/>
      <point x="466" y="217"/>
      <point x="466" y="338" type="curve"/>
      <point x="466" y="455"/>
      <point x="385" y="532"/>
      <point x="267" y="532" type="curve"/>
      <point x="145" y="532"/>
      <point x="63" y="450"/>
      <point x="63" y="329" type="curve"/>
    </contour>
    <contour>
      <point x="158" y="243"/>
      <point x="223" y="176"/>
      <point x="158" y="243" type="curve"/>
      <point x="105" y="208"/>
      <point x="66" y="169"/>
      <point x="66" y="106" type="curve"/>
      <point x="66" y="14"/>
      <point x="145" y="-29"/>
      <point x="244" y="-39" type="curve"/>
      <point x="308" y="-46"/>
      <point x="366" y="-67"/>
      <point x="366" y="-117" type="curve"/>
      <point x="366" y="-161"/>
      <point x="323" y="-192"/>
      <point x="269" y="-192" type="curve"/>
      <point x="213" y="-192"/>
      <point x="173" y="-158"/>
      <point x="173" y="-104" type="curve"/>
      <point x="173" y="-60"/>
      <point x="187" y="-23"/>
      <point x="225" y="-4" type="curve"/>
      <point x="154" y="62"/>
      <point x="225" y="-4"/>
      <point x="154" y="62" type="curve"/>
      <point x="79" y="26"/>
      <point x="30" y="-27"/>
      <point x="30" y="-109" type="curve"/>
      <point x="30" y="-229"/>
      <point x="128" y="-297"/>
      <point x="256" y="-297" type="curve"/>
      <point x="396" y="-297"/>
      <point x="511" y="-237"/>
      <point x="509" y="-112" type="curve"/>
      <point x="509" y="1"/>
      <point x="407" y="48"/>
      <point x="283" y="60" type="curve"/>
      <point x="242" y="64"/>
      <point x="209" y="78"/>
      <point x="209" y="117" type="curve"/>
      <point x="209" y="141"/>
      <point x="204" y="163"/>
      <point x="223" y="176" type="curve"/>
    </contour>
  </outline>
</glyph>
<glyph name="i" format="1">
  <advance width="328"/>
  <unicode hex="0069"/>
  <outline>
    <contour>
      <point x="167" y="110"/>
      <point x="167" y="0"/>
      <point x="167" y="110" type="curve"/>
      <point x="30" y="110"/>
      <point x="167" y="110"/>
      <point x="30" y="110" type="curve"/>
      <point x="30" y="0"/>
      <point x="30" y="110"/>
      <point x="30" y="0" type="curve"/>
      <point x="76" y="0"/>
      <point x="122" y="0"/>
      <point x="167" y="0" type="curve"/>
    </contour>
    <contour>
      <point x="167" y="0"/>
      <point x="167" y="110"/>
      <point x="167" y="0" type="curve"/>
      <point x="210" y="0"/>
      <point x="254" y="0"/>
      <point x="297" y="0" type="curve"/>
      <point x="297" y="110"/>
      <point x="297" y="0"/>
      <point x="297" y="110" type="curve"/>
      <point x="167" y="110"/>
      <point x="297" y="110"/>
      <point x="167" y="110" type="curve"/>
    </contour>
    <contour>
      <point x="167" y="533"/>
      <point x="167" y="423"/>
      <point x="167" y="533" type="curve"/>
      <point x="122" y="533"/>
      <point x="76" y="533"/>
      <point x="30" y="533" type="curve"/>
      <point x="30" y="423"/>
      <point x="30" y="533"/>
      <point x="30" y="423" type="curve"/>
      <point x="167" y="423"/>
      <point x="30" y="423"/>
      <point x="167" y="423" type="curve"/>
    </contour>
    <contour>
      <point x="251" y="670"/>
      <point x="83" y="670"/>
      <point x="251" y="670" type="curve"/>
      <point x="251" y="718"/>
      <point x="215" y="742"/>
      <point x="166" y="742" type="curve"/>
      <point x="116" y="742"/>
      <point x="83" y="715"/>
      <point x="83" y="670" type="curve"/>
      <point x="251" y="670"/>
      <point x="83" y="670"/>
      <point x="251" y="670" type="curve"/>
      <point x="251" y="621"/>
      <point x="216" y="599"/>
      <point x="166" y="599" type="curve"/>
      <point x="115" y="599"/>
      <point x="83" y="623"/>
      <point x="83" y="670" type="curve"/>
    </contour>
    <contour>
      <point x="242" y="0"/>
      <point x="93" y="0"/>
      <point x="242" y="0" type="curve"/>
      <point x="242" y="178"/>
      <point x="242" y="355"/>
      <point x="242" y="533" type="curve"/>
      <point x="93" y="533"/>
      <point x="242" y="533"/>
      <point x="93" y="533" type="curve"/>
      <point x="93" y="355"/>
      <point x="93" y="178"/>
      <point x="93" y="0" type="curve"/>
    </contour>
  </outline>
</glyph>
<glyph name="p" format="1">
  <advance width="584"/>
  <unicode hex="0070"/>
  <outline>
    <contour>
      <point x="167" y="-188"/>
      <point x="167" y="-299"/>
      <point x="167" y="-188" type="curve"/>
      <point x="30" y="-190"/>
      <point x="167" y="-188"/>
      <point x="30" y="-190" type="curve"/>
      <point x="30" y="-300"/>
      <point x="30" y="-190"/>
      <point x="30" y="-300" type="curve"/>
      <point x="76" y="-300"/>
      <point x="121" y="-299"/>
      <point x="167" y="-299" type="curve"/>
    </contour>
    <contour>
      <point x="167" y="-299"/>
      <point x="167" y="-188"/>
      <point x="167" y="-299" type="curve"/>
      <point x="211" y="-299"/>
      <point x="254" y="-300"/>
      <point x="297" y="-300" type="curve"/>
      <point x="297" y="-190"/>
      <point x="297" y="-300"/>
      <point x="297" y="-190" type="curve"/>
      <point x="167" y="-188"/>
      <point x="297" y="-190"/>
      <point x="167" y="-188" type="curve"/>
    </contour>
    <contour>
      <point x="168" y="534"/>
      <point x="168" y="424"/>
      <point x="168" y="534" type="curve"/>
      <point x="122" y="534"/>
      <point x="77" y="533"/>
      <point x="31" y="533" type="curve"/>
      <point x="31" y="423"/>
      <point x="31" y="533"/>
      <point x="31" y="423" type="curve"/>
      <point x="168" y="424"/>
      <point x="31" y="423"/>
      <point x="168" y="424" type="curve"/>
    </contour>
    <contour>
      <point x="203" y="346"/>
      <point x="173" y="423"/>
      <point x="203" y="346" type="curve"/>
      <point x="225" y="379"/>
      <point x="267" y="424"/>
      <point x="324" y="424" type="curve"/>
      <point x="403" y="424"/>
      <point x="411" y="338"/>
      <point x="411" y="245" type="curve"/>
      <point x="413" y="157"/>
      <point x="401" y="78"/>
      <point x="326" y="78" type="curve"/>
      <point x="278" y="78"/>
      <point x="243" y="98"/>
      <point x="213" y="135" type="curve"/>
      <point x="164" y="75"/>
      <point x="213" y="135"/>
      <point x="164" y="75" type="curve"/>
      <point x="217" y="4"/>
      <point x="280" y="-32"/>
      <point x="369" y="-32" type="curve"/>
      <point x="504" y="-32"/>
      <point x="554" y="98"/>
      <point x="554" y="251" type="curve"/>
      <point x="554" y="404"/>
      <point x="507" y="534"/>
      <point x="373" y="534" type="curve"/>
      <point x="282" y="534"/>
      <point x="209" y="476"/>
      <point x="173" y="423" type="curve"/>
    </contour>
    <contour>
      <point x="239" y="-300"/>
      <point x="96" y="-300"/>
      <point x="239" y="-300" type="curve"/>
      <point x="239" y="-22"/>
      <point x="239" y="255"/>
      <point x="239" y="533" type="curve"/>
      <point x="96" y="533"/>
      <point x="239" y="533"/>
      <point x="96" y="533" type="curve"/>
      <point x="96" y="255"/>
      <point x="96" y="-22"/>
      <point x="96" y="-300" type="curve"/>
    </contour>
  </outline>
</glyph>
<glyph name="s" format="1">
  <advance width="421"/>
  <unicode hex="0073"/>
  <outline>
    <contour>
      <point x="30" y="47"/>
      <point x="101" y="146"/>
      <point x="30" y="47" type="curve"/>
      <point x="85" y="16"/>
      <point x="140" y="0"/>
      <point x="200" y="0" type="curve"/>
      <point x="315" y="0"/>
      <point x="390" y="54"/>
      <point x="390" y="162" type="curve"/>
      <point x="389" y="259"/>
      <point x="319" y="293"/>
      <point x="223" y="327" type="curve"/>
      <point x="189" y="339"/>
      <point x="163" y="351"/>
      <point x="163" y="388" type="curve"/>
      <point x="163" y="410"/>
      <point x="173" y="423"/>
      <point x="195" y="423" type="curve"/>
      <point x="226" y="423"/>
      <point x="259" y="407"/>
      <point x="277" y="393" type="curve"/>
      <point x="342" y="493"/>
      <point x="277" y="393"/>
      <point x="342" y="493" type="curve"/>
      <point x="311" y="515"/>
      <point x="249" y="533"/>
      <point x="199" y="533" type="curve"/>
      <point x="98" y="533"/>
      <point x="33" y="484"/>
      <point x="33" y="388" type="curve"/>
      <point x="33" y="297"/>
      <point x="89" y="253"/>
      <point x="178" y="222" type="curve"/>
      <point x="217" y="208"/>
      <point x="254" y="186"/>
      <point x="254" y="162" type="curve"/>
      <point x="254" y="122"/>
      <point x="230" y="110"/>
      <point x="203" y="110" type="curve"/>
      <point x="161" y="110"/>
      <point x="140" y="124"/>
      <point x="101" y="146" type="curve"/>
    </contour>
    <contour>
      <point x="230" y="493"/>
      <point x="342" y="493"/>
      <point x="230" y="493" type="curve"/>
      <point x="230" y="373"/>
      <point x="230" y="493"/>
      <point x="230" y="373" type="curve"/>
      <point x="342" y="373"/>
      <point x="230" y="373"/>
      <point x="342" y="373" type="curve"/>
      <point x="342" y="493"/>
      <point x="342" y="373"/>
      <point x="342" y="493" type="curve"/>
    </contour>
    <contour>
      <point x="142" y="47"/>
      <point x="30" y="47"/>
      <point x="142" y="47" type="curve"/>
      <point x="142" y="167"/>
      <point x="142" y="47"/>
      <point x="142" y="167" type="curve"/>
      <point x="30" y="167"/>
      <point x="142" y="167"/>
      <point x="30" y="167" type="curve"/>
      <point x="30" y="47"/>
      <point x="30" y="167"/>
      <point x="30" y="47" type="curve"/>
    </contour>
  </outline>
</glyph>
<glyph name="u" format="1">
  <advance width="601"/>
  <unicode hex="0075"/>
  <outline>
    <contour>
      <point x="441" y="533"/>
      <point x="441" y="423"/>
      <point x="441" y="533" type="curve"/>
      <point x="395" y="533"/>
      <point x="349" y="533"/>
      <point x="304" y="533" type="curve"/>
      <point x="304" y="423"/>
      <point x="304" y="533"/>
      <point x="304" y="423" type="curve"/>
      <point x="441" y="423"/>
      <point x="304" y="423"/>
      <point x="441" y="423" type="curve"/>
    </contour>
    <contour>
      <point x="167" y="533"/>
      <point x="167" y="423"/>
      <point x="167" y="533" type="curve"/>
      <point x="122" y="533"/>
      <point x="76" y="533"/>
      <point x="30" y="533" type="curve"/>
      <point x="30" y="423"/>
      <point x="30" y="533"/>
      <point x="30" y="423" type="curve"/>
      <point x="167" y="423"/>
      <point x="30" y="423"/>
      <point x="167" y="423" type="curve"/>
    </contour>
    <contour>
      <point x="441" y="0"/>
      <point x="441" y="110"/>
      <point x="441" y="0" type="curve"/>
      <point x="484" y="0"/>
      <point x="528" y="0"/>
      <point x="571" y="0" type="curve"/>
      <point x="571" y="110"/>
      <point x="571" y="0"/>
      <point x="571" y="110" type="curve"/>
      <point x="441" y="110"/>
      <point x="571" y="110"/>
      <point x="441" y="110" type="curve"/>
    </contour>
    <contour>
      <point x="513" y="0"/>
      <point x="370" y="0"/>
      <point x="513" y="0" type="curve"/>
      <point x="513" y="178"/>
      <point x="513" y="355"/>
      <point x="513" y="533" type="curve"/>
      <point x="370" y="533"/>
      <point x="513" y="533"/>
      <point x="370" y="533" type="curve"/>
      <point x="370" y="355"/>
      <point x="370" y="178"/>
      <point x="370" y="0" type="curve"/>
    </contour>
    <contour>
      <point x="393" y="214"/>
      <point x="448" y="164"/>
      <point x="393" y="214" type="curve"/>
      <point x="374" y="169"/>
      <point x="348" y="111"/>
      <point x="298" y="111" type="curve"/>
      <point x="245" y="111"/>
      <point x="239" y="159"/>
      <point x="239" y="219" type="curve"/>
      <point x="239" y="324"/>
      <point x="239" y="429"/>
      <point x="239" y="534" type="curve"/>
      <point x="96" y="534"/>
      <point x="239" y="534"/>
      <point x="96" y="534" type="curve"/>
      <point x="96" y="427"/>
      <point x="96" y="320"/>
      <point x="96" y="214" type="curve"/>
      <point x="96" y="87"/>
      <point x="135" y="1"/>
      <point x="249" y="1" type="curve"/>
      <point x="342" y="1"/>
      <point x="416" y="81"/>
      <point x="448" y="164" type="curve"/>
    </contour>
  </outline>
</glyph>
<glyph name="w" format="1">
  <advance width="886"/>
  <unicode hex="0077"/>
  <outline>
    <contour>
      <point x="448" y="533"/>
      <point x="448" y="423"/>
      <point x="448" y="533" type="curve"/>
      <point x="402" y="533"/>
      <point x="360" y="533"/>
      <point x="315" y="533" type="curve"/>
      <point x="315" y="423"/>
      <point x="315" y="533"/>
      <point x="315" y="423" type="curve"/>
      <point x="452" y="423"/>
      <point x="311" y="423"/>
      <point x="448" y="423" type="curve"/>
    </contour>
    <contour>
      <point x="448" y="423"/>
      <point x="448" y="533"/>
      <point x="448" y="423" type="curve"/>
      <point x="585" y="423"/>
      <point x="436" y="423"/>
      <point x="573" y="423" type="curve"/>
      <point x="573" y="533"/>
      <point x="573" y="423"/>
      <point x="573" y="533" type="curve"/>
      <point x="527" y="533"/>
      <point x="494" y="533"/>
      <point x="448" y="533" type="curve"/>
    </contour>
    <contour>
      <point x="719" y="423"/>
      <point x="719" y="533"/>
      <point x="719" y="423" type="curve"/>
      <point x="856" y="423"/>
      <point x="719" y="423"/>
      <point x="856" y="423" type="curve"/>
      <point x="856" y="533"/>
      <point x="856" y="423"/>
      <point x="856" y="533" type="curve"/>
      <point x="810" y="533"/>
      <point x="764" y="533"/>
      <point x="719" y="533" type="curve"/>
    </contour>
    <contour>
      <point x="729" y="533"/>
      <point x="729" y="423"/>
      <point x="729" y="533" type="curve"/>
      <point x="683" y="533"/>
      <point x="637" y="533"/>
      <point x="591" y="533" type="curve"/>
      <point x="591" y="423"/>
      <point x="591" y="533"/>
      <point x="591" y="423" type="curve"/>
      <point x="729" y="423"/>
      <point x="591" y="423"/>
      <point x="729" y="423" type="curve"/>
    </contour>
    <contour>
      <point x="167" y="533"/>
      <point x="167" y="423"/>
      <point x="167" y="533" type="curve"/>
      <point x="122" y="533"/>
      <point x="76" y="533"/>
      <point x="30" y="533" type="curve"/>
      <point x="30" y="423"/>
      <point x="30" y="533"/>
      <point x="30" y="423" type="curve"/>
      <point x="167" y="423"/>
      <point x="30" y="423"/>
      <point x="167" y="423" type="curve"/>
    </contour>
    <contour>
      <point x="167" y="423"/>
      <point x="167" y="533"/>
      <point x="167" y="423" type="curve"/>
      <point x="305" y="423"/>
      <point x="160" y="423"/>
      <point x="298" y="423" type="curve"/>
      <point x="298" y="533"/>
      <point x="298" y="423"/>
      <point x="298" y="533" type="curve"/>
      <point x="252" y="533"/>
      <point x="213" y="533"/>
      <point x="167" y="533" type="curve"/>
    </contour>
    <contour>
      <point x="355" y="0"/>
      <point x="234" y="0"/>
      <point x="355" y="0" type="curve"/>
      <point x="406" y="178"/>
      <point x="456" y="355"/>
      <point x="507" y="533" type="curve"/>
      <point x="384" y="533"/>
      <point x="507" y="533"/>
      <point x="384" y="533" type="curve"/>
      <point x="334" y="355"/>
      <point x="284" y="178"/>
      <point x="234" y="0" type="curve"/>
    </contour>
    <contour>
      <point x="667" y="533"/>
      <point x="790" y="533"/>
      <point x="667" y="533" type="curve"/>
      <point x="620" y="355"/>
      <point x="573" y="178"/>
      <point x="527" y="0" type="curve"/>
      <point x="647" y="0"/>
      <point x="527" y="0"/>
      <point x="647" y="0" type="curve"/>
      <point x="695" y="178"/>
      <point x="742" y="355"/>
      <point x="790" y="533" type="curve"/>
    </contour>
    <contour>
      <point x="388" y="533"/>
      <point x="511" y="533"/>
      <point x="388" y="533" type="curve"/>
      <point x="434" y="355"/>
      <point x="480" y="178"/>
      <point x="526" y="0" type="curve"/>
      <point x="647" y="0"/>
      <point x="526" y="0"/>
      <point x="647" y="0" type="curve"/>
      <point x="601" y="178"/>
      <point x="556" y="355"/>
      <point x="511" y="533" type="curve"/>
    </contour>
    <contour>
      <point x="97" y="533"/>
      <point x="219" y="533"/>
      <point x="97" y="533" type="curve"/>
      <point x="142" y="355"/>
      <point x="188" y="178"/>
      <point x="233" y="0" type="curve"/>
      <point x="354" y="0"/>
      <point x="233" y="0"/>
      <point x="354" y="0" type="curve"/>
      <point x="309" y="178"/>
      <point x="264" y="355"/>
      <point x="219" y="533" type="curve"/>
    </contour>
  </outline>
</glyph>
<glyph name="x" format="1">
  <advance width="643"/>
  <unicode hex="0078"/>
  <outline>
    <contour>
      <point x="167" y="110"/>
      <point x="167" y="0"/>
      <point x="167" y="110" type="curve"/>
      <point x="30" y="110"/>
      <point x="167" y="110"/>
      <point x="30" y="110" type="curve"/>
      <point x="30" y="0"/>
      <point x="30" y="110"/>
      <point x="30" y="0" type="curve"/>
      <point x="76" y="0"/>
      <point x="122" y="0"/>
      <point x="167" y="0" type="curve"/>
    </contour>
    <contour>
      <point x="476" y="110"/>
      <point x="476" y="0"/>
      <point x="476" y="110" type="curve"/>
      <point x="339" y="110"/>
      <point x="476" y="110"/>
      <point x="339" y="110" type="curve"/>
      <point x="339" y="0"/>
      <point x="339" y="110"/>
      <point x="339" y="0" type="curve"/>
      <point x="385" y="0"/>
      <point x="431" y="0"/>
      <point x="476" y="0" type="curve"/>
    </contour>
    <contour>
      <point x="476" y="0"/>
      <point x="476" y="110"/>
      <point x="476" y="0" type="curve"/>
      <point x="522" y="0"/>
      <point x="568" y="0"/>
      <point x="614" y="0" type="curve"/>
      <point x="614" y="110"/>
      <point x="614" y="0"/>
      <point x="614" y="110" type="curve"/>
      <point x="476" y="110"/>
      <point x="614" y="110"/>
      <point x="476" y="110" type="curve"/>
    </contour>
    <contour>
      <point x="167" y="0"/>
      <point x="167" y="110"/>
      <point x="167" y="0" type="curve"/>
      <point x="213" y="0"/>
      <point x="167" y="0"/>
      <point x="305" y="0" type="curve"/>
      <point x="305" y="110"/>
      <point x="305" y="0"/>
      <point x="305" y="110" type="curve"/>
      <point x="167" y="110"/>
      <point x="305" y="110"/>
      <point x="167" y="110" type="curve"/>
    </contour>
    <contour>
      <point x="464" y="423"/>
      <point x="464" y="533"/>
      <point x="464" y="423" type="curve"/>
      <point x="602" y="423"/>
      <point x="464" y="423"/>
      <point x="602" y="423" type="curve"/>
      <point x="602" y="533"/>
      <point x="602" y="423"/>
      <point x="602" y="533" type="curve"/>
      <point x="556" y="533"/>
      <point x="510" y="533"/>
      <point x="464" y="533" type="curve"/>
    </contour>
    <contour>
      <point x="182" y="533"/>
      <point x="182" y="423"/>
      <point x="182" y="533" type="curve"/>
      <point x="137" y="533"/>
      <point x="91" y="533"/>
      <point x="45" y="533" type="curve"/>
      <point x="45" y="423"/>
      <point x="45" y="533"/>
      <point x="45" y="423" type="curve"/>
      <point x="182" y="423"/>
      <point x="45" y="423"/>
      <point x="182" y="423" type="curve"/>
    </contour>
    <contour>
      <point x="182" y="423"/>
      <point x="182" y="533"/>
      <point x="182" y="423" type="curve"/>
      <point x="320" y="423"/>
      <point x="173" y="423"/>
      <point x="311" y="423" type="curve"/>
      <point x="311" y="533"/>
      <point x="311" y="423"/>
      <point x="311" y="533" type="curve"/>
      <point x="265" y="533"/>
      <point x="228" y="533"/>
      <point x="182" y="533" type="curve"/>
    </contour>
    <contour>
      <point x="464" y="533"/>
      <point x="464" y="423"/>
      <point x="464" y="533" type="curve"/>
      <point x="419" y="533"/>
      <point x="380" y="533"/>
      <point x="334" y="533" type="curve"/>
      <point x="334" y="423"/>
      <point x="334" y="533"/>
      <point x="334" y="423" type="curve"/>
      <point x="471" y="423"/>
      <point x="327" y="423"/>
      <point x="464" y="423" type="curve"/>
    </contour>
    <contour>
      <point x="549" y="0"/>
      <point x="424" y="0"/>
      <point x="549" y="0" type="curve"/>
      <point x="445" y="178"/>
      <point x="341" y="355"/>
      <point x="236" y="533" type="curve"/>
      <point x="112" y="533"/>
      <point x="236" y="533"/>
      <point x="112" y="533" type="curve"/>
      <point x="216" y="355"/>
      <point x="320" y="178"/>
      <point x="424" y="0" type="curve"/>
    </contour>
    <contour>
      <point x="412" y="533"/>
      <point x="536" y="533"/>
      <point x="412" y="533" type="curve"/>
      <point x="306" y="355"/>
      <point x="201" y="178"/>
      <point x="95" y="0" type="curve"/>
      <point x="222" y="0"/>
      <point x="95" y="0"/>
      <point x="222" y="0" type="curve"/>
      <point x="326" y="178"/>
      <point x="431" y="355"/>
      <point x="536" y="533" type="curve"/>
    </contour>
  </outline>
</glyph>
<glyph name="y" format="1">
  <advance width="639"/>
  <unicode hex="0079"/>
  <outline>
    <contour>
      <point x="185" y="-188"/>
      <point x="185" y="-299"/>
      <point x="185" y="-188" type="curve"/>
      <point x="47" y="-190"/>
      <point x="185" y="-188"/>
      <point x="47" y="-190" type="curve"/>
      <point x="47" y="-300"/>
      <point x="47" y="-190"/>
      <point x="47" y="-300" type="curve"/>
      <point x="93" y="-300"/>
      <point x="139" y="-299"/>
      <point x="185" y="-299" type="curve"/>
    </contour>
    <contour>
      <point x="167" y="534"/>
      <point x="167" y="424"/>
      <point x="167" y="534" type="curve"/>
      <point x="121" y="534"/>
      <point x="76" y="533"/>
      <point x="30" y="533" type="curve"/>
      <point x="30" y="423"/>
      <point x="30" y="533"/>
      <point x="30" y="423" type="curve"/>
      <point x="167" y="424"/>
      <point x="30" y="423"/>
      <point x="167" y="424" type="curve"/>
    </contour>
    <contour>
      <point x="167" y="424"/>
      <point x="167" y="534"/>
      <point x="167" y="424" type="curve"/>
      <point x="305" y="423"/>
      <point x="167" y="424"/>
      <point x="305" y="423" type="curve"/>
      <point x="305" y="533"/>
      <point x="305" y="423"/>
      <point x="305" y="533" type="curve"/>
      <point x="259" y="533"/>
      <point x="213" y="534"/>
      <point x="167" y="534" type="curve"/>
    </contour>
    <contour>
      <point x="471" y="534"/>
      <point x="471" y="424"/>
      <point x="471" y="534" type="curve"/>
      <point x="425" y="534"/>
      <point x="380" y="533"/>
      <point x="334" y="533" type="curve"/>
      <point x="334" y="423"/>
      <point x="334" y="533"/>
      <point x="334" y="423" type="curve"/>
      <point x="471" y="424"/>
      <point x="334" y="423"/>
      <point x="471" y="424" type="curve"/>
    </contour>
    <contour>
      <point x="471" y="424"/>
      <point x="471" y="534"/>
      <point x="471" y="424" type="curve"/>
      <point x="608" y="423"/>
      <point x="471" y="424"/>
      <point x="608" y="423" type="curve"/>
      <point x="608" y="533"/>
      <point x="608" y="423"/>
      <point x="608" y="533" type="curve"/>
      <point x="562" y="533"/>
      <point x="517" y="534"/>
      <point x="471" y="534" type="curve"/>
    </contour>
    <contour>
      <point x="384" y="77"/>
      <point x="242" y="77"/>
      <point x="384" y="77" type="curve"/>
      <point x="333" y="229"/>
      <point x="282" y="381"/>
      <point x="231" y="533" type="curve"/>
      <point x="85" y="533"/>
      <point x="231" y="533"/>
      <point x="85" y="533" type="curve"/>
      <point x="137" y="381"/>
      <point x="190" y="229"/>
      <point x="242" y="77" type="curve"/>
    </contour>
    <contour>
      <point x="248" y="-300"/>
      <point x="102" y="-300"/>
      <point x="248" y="-300" type="curve"/>
      <point x="350" y="-22"/>
      <point x="451" y="255"/>
      <point x="553" y="533" type="curve"/>
      <point x="408" y="533"/>
      <point x="553" y="533"/>
      <point x="408" y="533" type="curve"/>
      <point x="306" y="255"/>
      <point x="204" y="-22"/>
      <point x="102" y="-300" type="curve"/>
    </contour>
  </outline>
</glyph>
<glyph name="braceleft" format="1">
  <advance width="234"/>
  <unicode hex="007B"/>
  <outline>
    <contour>
      <point x="203" y="-59"/>
      <point x="203" y="-169"/>
      <point x="203" y="-59" type="curve"/>
      <point x="166" y="-59"/>
      <point x="181" y="-18"/>
      <point x="181" y="23" type="curve"/>
      <point x="181" y="81"/>
      <point x="181" y="140"/>
      <point x="181" y="198" type="curve"/>
      <point x="181" y="311"/>
      <point x="133" y="397"/>
      <point x="30" y="397" type="curve"/>
      <point x="30" y="280"/>
      <point x="30" y="397"/>
      <point x="30" y="280" type="curve"/>
      <point x="62" y="280"/>
      <point x="51" y="245"/>
      <point x="51" y="210" type="curve"/>
      <point x="51" y="149"/>
      <point x="51" y="89"/>
      <point x="51" y="28" type="curve"/>
      <point x="51" y="-85"/>
      <point x="99" y="-169"/>
      <point x="203" y="-169" type="curve"/>
    </contour>
    <contour>
      <point x="203" y="845"/>
      <point x="203" y="735"/>
      <point x="203" y="845" type="curve"/>
      <point x="99" y="845"/>
      <point x="51" y="764"/>
      <point x="51" y="651" type="curve"/>
      <point x="51" y="588"/>
      <point x="51" y="526"/>
      <point x="51" y="463" type="curve"/>
      <point x="51" y="429"/>
      <point x="60" y="397"/>
      <point x="30" y="397" type="curve"/>
      <point x="30" y="280"/>
      <point x="30" y="397"/>
      <point x="30" y="280" type="curve"/>
      <point x="134" y="280"/>
      <point x="181" y="365"/>
      <point x="181" y="480" type="curve"/>
      <point x="181" y="537"/>
      <point x="181" y="594"/>
      <point x="181" y="651" type="curve"/>
      <point x="181" y="692"/>
      <point x="165" y="735"/>
      <point x="203" y="735" type="curve"/>
    </contour>
  </outline>
</glyph>
<glyph name="dhadeva" format="1">
  <advance width="608"/>
  <unicode hex="0927"/>
  <outline>
    <contour>
      <point x="448" y="0"/>
      <point x="448" y="110"/>
      <point x="448" y="0" type="curve"/>
      <point x="491" y="0"/>
      <point x="535" y="0"/>
      <point x="578" y="0" type="curve"/>
      <point x="578" y="110"/>
      <point x="578" y="0"/>
      <point x="578" y="110" type="curve"/>
      <point x="448" y="110"/>
      <point x="578" y="110"/>
      <point x="448" y="110" type="curve"/>
    </contour>
    <contour>
      <point x="448" y="110"/>
      <point x="448" y="0"/>
      <point x="448" y="110" type="curve"/>
      <point x="311" y="110"/>
      <point x="514" y="110"/>
      <point x="377" y="110" type="curve"/>
      <point x="377" y="0"/>
      <point x="377" y="110"/>
      <point x="377" y="0" type="curve"/>
      <point x="422" y="0"/>
      <point x="402" y="0"/>
      <point x="448" y="0" type="curve"/>
    </contour>
    <contour>
      <point x="639" y="722"/>
      <point x="639" y="612"/>
      <point x="639" y="722" type="curve"/>
      <point x="601" y="722"/>
      <point x="477" y="722"/>
      <point x="440" y="722" type="curve"/>
      <point x="440" y="612"/>
      <point x="440" y="722"/>
      <point x="440" y="612" type="curve"/>
      <point x="477" y="612"/>
      <point x="601" y="612"/>
      <point x="639" y="612" type="curve"/>
    </contour>
    <contour>
      <point x="396" y="323"/>
      <point x="500" y="273"/>
      <point x="396" y="323" type="curve"/>
      <point x="371" y="257"/>
      <point x="337" y="208"/>
      <point x="269" y="208" type="curve"/>
      <point x="212" y="208"/>
      <point x="173" y="241"/>
      <point x="173" y="297" type="curve"/>
      <point x="173" y="355"/>
      <point x="223" y="382"/>
      <point x="288" y="382" type="curve"/>
      <point x="288" y="475"/>
      <point x="288" y="382"/>
      <point x="288" y="475" type="curve"/>
      <point x="143" y="475"/>
      <point x="30" y="418"/>
      <point x="30" y="286" type="curve"/>
      <point x="30" y="162"/>
      <point x="125" y="98"/>
      <point x="256" y="98" type="curve"/>
      <point x="377" y="98"/>
      <point x="460" y="158"/>
      <point x="500" y="273" type="curve"/>
    </contour>
    <contour>
      <point x="520" y="0"/>
      <point x="377" y="0"/>
      <point x="520" y="0" type="curve"/>
      <point x="520" y="237"/>
      <point x="520" y="485"/>
      <point x="520" y="722" type="curve"/>
      <point x="377" y="722"/>
      <point x="520" y="722"/>
      <point x="377" y="722" type="curve"/>
      <point x="377" y="485"/>
      <point x="377" y="237"/>
      <point x="377" y="0" type="curve"/>
    </contour>
    <contour>
      <point x="328" y="488"/>
      <point x="237" y="554"/>
      <point x="328" y="488" type="curve"/>
      <point x="352" y="519"/>
      <point x="366" y="545"/>
      <point x="366" y="584" type="curve"/>
      <point x="366" y="671"/>
      <point x="305" y="722"/>
      <point x="216" y="722" type="curve"/>
      <point x="109" y="722"/>
      <point x="39" y="659"/>
      <point x="39" y="555" type="curve"/>
      <point x="39" y="429"/>
      <point x="148" y="382"/>
      <point x="288" y="382" type="curve"/>
      <point x="288" y="475"/>
      <point x="288" y="382"/>
      <point x="288" y="475" type="curve"/>
      <point x="226" y="475"/>
      <point x="182" y="504"/>
      <point x="182" y="560" type="curve"/>
      <point x="182" y="586"/>
      <point x="188" y="612"/>
      <point x="211" y="612" type="curve"/>
      <point x="232" y="612"/>
      <point x="242" y="596"/>
      <point x="242" y="573" type="curve"/>
      <point x="242" y="566"/>
      <point x="241" y="561"/>
      <point x="237" y="554" type="curve"/>
    </contour>
  </outline>
</glyph>
<glyph name="ssadeva" format="1">
  <advance width="525"/>
  <unicode hex="0937"/>
  <outline>
    <contour>
      <point x="-40" y="612"/>
      <point x="-40" y="722"/>
      <point x="-40" y="612" type="curve"/>
      <point x="109" y="612"/>
      <point x="388" y="612"/>
      <point x="537" y="612" type="curve"/>
      <point x="537" y="722"/>
      <point x="537" y="612"/>
      <point x="537" y="722" type="curve"/>
      <point x="388" y="722"/>
      <point x="109" y="722"/>
      <point x="-40" y="722" type="curve"/>
    </contour>
    <contour>
      <point x="365" y="110"/>
      <point x="365" y="0"/>
      <point x="365" y="110" type="curve"/>
      <point x="228" y="110"/>
      <point x="365" y="110"/>
      <point x="228" y="110" type="curve"/>
      <point x="228" y="0"/>
      <point x="228" y="110"/>
      <point x="228" y="0" type="curve"/>
      <point x="274" y="0"/>
      <point x="320" y="0"/>
      <point x="365" y="0" type="curve"/>
    </contour>
    <contour>
      <point x="365" y="0"/>
      <point x="365" y="110"/>
      <point x="365" y="0" type="curve"/>
      <point x="408" y="0"/>
      <point x="452" y="0"/>
      <point x="495" y="0" type="curve"/>
      <point x="495" y="110"/>
      <point x="495" y="0"/>
      <point x="495" y="110" type="curve"/>
      <point x="365" y="110"/>
      <point x="495" y="110"/>
      <point x="365" y="110" type="curve"/>
    </contour>
    <contour>
      <point x="57" y="627"/>
      <point x="155" y="699"/>
      <point x="57" y="627" type="curve"/>
      <point x="145" y="520"/>
      <point x="231" y="411"/>
      <point x="319" y="304" type="curve"/>
      <point x="410" y="392"/>
      <point x="319" y="304"/>
      <point x="410" y="392" type="curve"/>
      <point x="326" y="495"/>
      <point x="239" y="596"/>
      <point x="155" y="699" type="curve"/>
    </contour>
    <contour>
      <point x="318" y="387"/>
      <point x="415" y="342"/>
      <point x="318" y="387" type="curve"/>
      <point x="302" y="345"/>
      <point x="275" y="321"/>
      <point x="231" y="321" type="curve"/>
      <point x="188" y="321"/>
      <point x="177" y="361"/>
      <point x="177" y="409" type="curve"/>
      <point x="177" y="494"/>
      <point x="177" y="580"/>
      <point x="177" y="665" type="curve"/>
      <point x="34" y="665"/>
      <point x="177" y="665"/>
      <point x="34" y="665" type="curve"/>
      <point x="33" y="585"/>
      <point x="34" y="505"/>
      <point x="34" y="425" type="curve"/>
      <point x="33" y="297"/>
      <point x="102" y="205"/>
      <point x="224" y="205" type="curve"/>
      <point x="319" y="205"/>
      <point x="383" y="252"/>
      <point x="415" y="342" type="curve"/>
    </contour>
    <contour>
      <point x="435" y="0"/>
      <point x="292" y="0"/>
      <point x="435" y="0" type="curve"/>
      <point x="435" y="237"/>
      <point x="435" y="473"/>
      <point x="435" y="710" type="curve"/>
      <point x="292" y="710"/>
      <point x="435" y="710"/>
      <point x="292" y="710" type="curve"/>
      <point x="292" y="473"/>
      <point x="292" y="237"/>
      <point x="292" y="0" type="curve"/>
    </contour>
  </outline>
</glyph>
<glyph name="uni0922094D0922094D092F" format="1">
  <advance width="1013"/>
  <unicode hex="E003"/>
  <outline>
    <contour>
      <point x="301" y="666"/>
      <point x="444" y="666"/>
      <point x="301" y="666" type="curve"/>
      <point x="301" y="610"/>
      <point x="301" y="553"/>
      <point x="301" y="497" type="curve"/>
      <point x="312" y="508"/>
      <point x="321" y="523"/>
      <point x="333" y="534" type="curve"/>
      <point x="345" y="547"/>
      <point x="365" y="547"/>
      <point x="377" y="560" type="curve"/>
      <point x="347" y="560"/>
      <point x="317" y="560"/>
      <point x="288" y="560" type="curve"/>
      <point x="147" y="560"/>
      <point x="47" y="500"/>
      <point x="47" y="370" type="curve"/>
      <point x="47" y="227"/>
      <point x="149" y="173"/>
      <point x="306" y="173" type="curve"/>
      <point x="409" y="173"/>
      <point x="484" y="210"/>
      <point x="484" y="303" type="curve"/>
      <point x="484" y="380"/>
      <point x="439" y="422"/>
      <point x="365" y="422" type="curve"/>
      <point x="287" y="422"/>
      <point x="242" y="378"/>
      <point x="242" y="299" type="curve"/>
      <point x="242" y="231"/>
      <point x="288" y="202"/>
      <point x="359" y="193" type="curve"/>
      <point x="372" y="253"/>
      <point x="359" y="193"/>
      <point x="372" y="253" type="curve"/>
      <point x="348" y="260"/>
      <point x="343" y="277"/>
      <point x="343" y="303" type="curve"/>
      <point x="343" y="318"/>
      <point x="350" y="328"/>
      <point x="365" y="328" type="curve"/>
      <point x="379" y="328"/>
      <point x="384" y="316"/>
      <point x="384" y="299" type="curve"/>
      <point x="384" y="269"/>
      <point x="354" y="267"/>
      <point x="319" y="267" type="curve"/>
      <point x="241" y="267"/>
      <point x="190" y="315"/>
      <point x="190" y="370" type="curve"/>
      <point x="190" y="409"/>
      <point x="231" y="444"/>
      <point x="288" y="444" type="curve"/>
      <point x="317" y="444"/>
      <point x="347" y="444"/>
      <point x="377" y="444" type="curve"/>
      <point x="444" y="444"/>
      <point x="377" y="444"/>
      <point x="444" y="444" type="curve"/>
      <point x="444" y="497"/>
      <point x="444" y="444"/>
      <point x="444" y="497" type="curve"/>
      <point x="444" y="553"/>
      <point x="444" y="610"/>
      <point x="444" y="666" type="curve"/>
    </contour>
    <contour>
      <point x="292" y="223"/>
      <point x="435" y="223"/>
      <point x="292" y="223" type="curve"/>
      <point x="292" y="172"/>
      <point x="292" y="120"/>
      <point x="292" y="68" type="curve"/>
      <point x="304" y="80"/>
      <point x="314" y="92"/>
      <point x="325" y="103" type="curve"/>
      <point x="337" y="117"/>
      <point x="357" y="119"/>
      <point x="369" y="132" type="curve"/>
      <point x="340" y="132"/>
      <point x="310" y="132"/>
      <point x="281" y="132" type="curve"/>
      <point x="136" y="132"/>
      <point x="47" y="68"/>
      <point x="47" y="-68" type="curve"/>
      <point x="47" y="-212"/>
      <point x="149" y="-270"/>
      <point x="306" y="-270" type="curve"/>
      <point x="409" y="-270"/>
      <point x="484" y="-234"/>
      <point x="484" y="-140" type="curve"/>
      <point x="484" y="-64"/>
      <point x="443" y="-19"/>
      <point x="369" y="-19" type="curve"/>
      <point x="291" y="-19"/>
      <point x="250" y="-65"/>
      <point x="250" y="-144" type="curve"/>
      <point x="250" y="-208"/>
      <point x="300" y="-240"/>
      <point x="356" y="-247" type="curve"/>
      <point x="375" y="-197"/>
      <point x="356" y="-247"/>
      <point x="375" y="-197" type="curve"/>
      <point x="351" y="-189"/>
      <point x="345" y="-169"/>
      <point x="345" y="-140" type="curve"/>
      <point x="345" y="-125"/>
      <point x="349" y="-113"/>
      <point x="362" y="-113" type="curve"/>
      <point x="378" y="-113"/>
      <point x="383" y="-126"/>
      <point x="383" y="-144" type="curve"/>
      <point x="383" y="-175"/>
      <point x="355" y="-182"/>
      <point x="319" y="-182" type="curve"/>
      <point x="238" y="-182"/>
      <point x="190" y="-125"/>
      <point x="190" y="-68" type="curve"/>
      <point x="190" y="-26"/>
      <point x="223" y="16"/>
      <point x="281" y="16" type="curve"/>
      <point x="310" y="16"/>
      <point x="340" y="16"/>
      <point x="369" y="16" type="curve"/>
      <point x="435" y="16"/>
      <point x="369" y="16"/>
      <point x="435" y="16" type="curve"/>
      <point x="435" y="68"/>
      <point x="435" y="16"/>
      <point x="435" y="68" type="curve"/>
      <point x="435" y="120"/>
      <point x="435" y="172"/>
      <point x="435" y="223" type="curve"/>
    </contour>
    <contour>
      <point x="857" y="0"/>
      <point x="857" y="110"/>
      <point x="857" y="0" type="curve"/>
      <point x="897" y="0"/>
      <point x="938" y="0"/>
      <point x="979" y="0" type="curve"/>
      <point x="979" y="110"/>
      <point x="979" y="0"/>
      <point x="979" y="110" type="curve"/>
      <point x="857" y="110"/>
      <point x="979" y="110"/>
      <point x="857" y="110" type="curve"/>
    </contour>
    <contour>
      <point x="30" y="612"/>
      <point x="30" y="722"/>
      <point x="30" y="612" type="curve"/>
      <point x="347" y="612"/>
      <point x="665" y="612"/>
      <point x="983" y="612" type="curve"/>
      <point x="983" y="722"/>
      <point x="983" y="612"/>
      <point x="983" y="722" type="curve"/>
      <point x="665" y="722"/>
      <point x="347" y="722"/>
      <point x="30" y="722" type="curve"/>
    </contour>
    <contour>
      <point x="928" y="0"/>
      <point x="785" y="0"/>
      <point x="928" y="0" type="curve"/>
      <point x="928" y="237"/>
      <point x="928" y="473"/>
      <point x="928" y="710" type="curve"/>
      <point x="785" y="710"/>
      <point x="928" y="710"/>
      <point x="785" y="710" type="curve"/>
      <point x="785" y="473"/>
      <point x="785" y="237"/>
      <point x="785" y="0" type="curve"/>
    </contour>
    <contour>
      <point x="344" y="444"/>
      <point x="344" y="560"/>
      <point x="344" y="444" type="curve"/>
      <point x="422" y="444"/>
      <point x="475" y="444"/>
      <point x="553" y="444" type="curve"/>
      <point x="593" y="444"/>
      <point x="629" y="435"/>
      <point x="629" y="412" type="curve"/>
      <point x="629" y="390"/>
      <point x="595" y="382"/>
      <point x="557" y="382" type="curve"/>
      <point x="490" y="382"/>
      <point x="557" y="382"/>
      <point x="490" y="382" type="curve"/>
      <point x="490" y="328"/>
      <point x="490" y="382"/>
      <point x="490" y="328" type="curve"/>
      <point x="491" y="176"/>
      <point x="571" y="75"/>
      <point x="719" y="75" type="curve"/>
      <point x="817" y="75"/>
      <point x="873" y="126"/>
      <point x="909" y="220" type="curve"/>
      <point x="805" y="270"/>
      <point x="909" y="220"/>
      <point x="805" y="270" type="curve"/>
      <point x="786" y="225"/>
      <point x="766" y="196"/>
      <point x="719" y="196" type="curve"/>
      <point x="651" y="196"/>
      <point x="633" y="258"/>
      <point x="633" y="334" type="curve"/>
      <point x="623" y="322"/>
      <point x="611" y="310"/>
      <point x="601" y="298" type="curve"/>
      <point x="589" y="284"/>
      <point x="568" y="280"/>
      <point x="557" y="266" type="curve"/>
      <point x="681" y="266"/>
      <point x="772" y="305"/>
      <point x="772" y="417" type="curve"/>
      <point x="772" y="527"/>
      <point x="677" y="560"/>
      <point x="553" y="560" type="curve"/>
      <point x="475" y="560"/>
      <point x="422" y="560"/>
      <point x="344" y="560" type="curve"/>
    </contour>
  </outline>
</glyph>
